<svg width="20" height="21" viewBox="0 0 20 21" fill="none" xmlns="http://www.w3.org/2000/svg">
<path d="M18.8958 0.223999H1.10417C0.494167 0.223999 0 0.718166 0 1.32817V19.1207C0 19.7298 0.494167 20.224 1.10417 20.224H10.6833V12.479H8.07667V9.46067H10.6833V7.23483C10.6833 4.6515 12.2608 3.24483 14.5658 3.24483C15.67 3.24483 16.6183 3.32733 16.895 3.364V6.064L15.2967 6.06483C14.0433 6.06483 13.8008 6.66067 13.8008 7.534V9.4615H16.79L16.4008 12.4798H13.8008V20.224H18.8975C19.5058 20.224 20 19.7298 20 19.1198V1.32817C20 0.718166 19.5058 0.223999 18.8958 0.223999Z" fill="#584D62"/>
</svg>
