<svg width="20" height="17" viewBox="0 0 20 17" fill="none" xmlns="http://www.w3.org/2000/svg">
<path d="M20 2.39621C19.2642 2.72288 18.4733 2.94288 17.6433 3.04205C18.4908 2.53455 19.1417 1.73038 19.4475 0.772046C18.655 1.24205 17.7767 1.58371 16.8417 1.76788C16.0942 0.970379 15.0267 0.472046 13.8467 0.472046C11.1975 0.472046 9.25083 2.94371 9.84917 5.50955C6.44 5.33871 3.41667 3.70538 1.3925 1.22288C0.3175 3.06705 0.835 5.47955 2.66167 6.70121C1.99 6.67955 1.35667 6.49538 0.804167 6.18788C0.759167 8.08871 2.12167 9.86705 4.095 10.2629C3.5175 10.4195 2.885 10.4562 2.24167 10.3329C2.76333 11.9629 4.27833 13.1487 6.075 13.182C4.35 14.5345 2.17667 15.1387 0 14.882C1.81583 16.0462 3.97333 16.7254 6.29 16.7254C13.9083 16.7254 18.2125 10.2912 17.9525 4.52038C18.7542 3.94121 19.45 3.21871 20 2.39621Z" fill="#584D62"/>
</svg>
