<svg width="20" height="21" viewBox="0 0 20 21" fill="none" xmlns="http://www.w3.org/2000/svg">
<path fill-rule="evenodd" clip-rule="evenodd" d="M10 0.223999C7.28417 0.223999 6.94417 0.235666 5.8775 0.283999C2.24583 0.450666 0.2275 2.46567 0.0608333 6.10067C0.0116667 7.16817 0 7.50817 0 10.224C0 12.9398 0.0116667 13.2807 0.06 14.3473C0.226667 17.979 2.24167 19.9973 5.87667 20.164C6.94417 20.2123 7.28417 20.224 10 20.224C12.7158 20.224 13.0567 20.2123 14.1233 20.164C17.7517 19.9973 19.775 17.9823 19.9392 14.3473C19.9883 13.2807 20 12.9398 20 10.224C20 7.50817 19.9883 7.16817 19.94 6.1015C19.7767 2.47317 17.7592 0.451499 14.1242 0.284832C13.0567 0.235666 12.7158 0.223999 10 0.223999ZM10 2.0265C12.67 2.0265 12.9867 2.0365 14.0417 2.08483C16.7517 2.20817 18.0175 3.494 18.1408 6.184C18.1892 7.23817 18.1983 7.55483 18.1983 10.2248C18.1983 12.8957 18.1883 13.2115 18.1408 14.2657C18.0167 16.9532 16.7542 18.2415 14.0417 18.3648C12.9867 18.4132 12.6717 18.4232 10 18.4232C7.33 18.4232 7.01333 18.4132 5.95917 18.3648C3.2425 18.2407 1.98333 16.949 1.86 14.2648C1.81167 13.2107 1.80167 12.8948 1.80167 10.224C1.80167 7.554 1.8125 7.23817 1.86 6.18317C1.98417 3.494 3.24667 2.20733 5.95917 2.084C7.01417 2.0365 7.33 2.0265 10 2.0265ZM4.865 10.224C4.865 7.38817 7.16417 5.089 10 5.089C12.8358 5.089 15.135 7.38817 15.135 10.224C15.135 13.0607 12.8358 15.3598 10 15.3598C7.16417 15.3598 4.865 13.0598 4.865 10.224ZM10 13.5573C8.15917 13.5573 6.66667 12.0657 6.66667 10.224C6.66667 8.38317 8.15917 6.89067 10 6.89067C11.8408 6.89067 13.3333 8.38317 13.3333 10.224C13.3333 12.0657 11.8408 13.5573 10 13.5573ZM14.1375 4.8865C14.1375 4.224 14.675 3.6865 15.3383 3.6865C16.0008 3.6865 16.5375 4.224 16.5375 4.8865C16.5375 5.549 16.0008 6.0865 15.3383 6.0865C14.675 6.0865 14.1375 5.549 14.1375 4.8865Z" fill="#584D62"/>
</svg>
